<svg width="35" height="32" viewBox="0 0 35 32" fill="none" xmlns="http://www.w3.org/2000/svg">
<mask id="mask0_14_308" style="mask-type:alpha" maskUnits="userSpaceOnUse" x="0" y="0" width="35" height="32">
<rect x="0.194031" width="34.3881" height="32" rx="16" fill="#D9D9D9"/>
</mask>
<g mask="url(#mask0_14_308)">
<rect x="0.194031" width="34.3881" height="32" rx="16" fill="#D9D9D9"/>
<ellipse cx="17.3881" cy="16" rx="17.194" ry="16" fill="#78CA88"/>
<mask id="mask1_14_308" style="mask-type:alpha" maskUnits="userSpaceOnUse" x="0" y="0" width="35" height="32">
<ellipse cx="17.3881" cy="16" rx="17.194" ry="16" fill="#78CA88"/>
</mask>
<g mask="url(#mask1_14_308)">
<path d="M12.1741 22.8348C12.1741 22.8348 5.97662 21.436 -0.810211 26.0583C-5.25181 29.0836 -10.2986 34.6266 -15.8372 40.7401L-2.49845 51.5723C2.00486 46.4758 6.9899 40.8476 6.9899 40.8476L12.1741 22.8348Z" fill="#F8F6F0"/>
<path d="M22.4988 22.8348C22.4988 22.8348 28.6943 21.436 35.4811 26.0583C39.9247 29.0836 44.9716 34.6266 50.5102 40.7401L37.1714 51.5723C32.6681 46.4758 27.683 40.8476 27.683 40.8476L22.4988 22.8348Z" fill="#F8F6F0"/>
<path d="M0.569805 25.1894C0.569805 25.1894 5.9631 21.8325 11.6868 22.7569C18.1133 23.7944 18.5711 23.5424 23.2755 22.7569C27.9799 21.9714 32.6864 24.2798 34.2353 25.1894L36.2261 52.4467H-1.42105L0.569805 25.1894Z" fill="#F8F6F0"/>
<path d="M19.758 26.7659L17.4071 24.5783L15.0561 26.766L17.407 28.9536L19.758 26.7659Z" fill="#1C1C1C"/>
<path d="M17.4059 24.5762L13.4082 28.3037L10.9734 23.1423" stroke="#1C1C1C" stroke-width="0.555781" stroke-linecap="round" stroke-linejoin="round"/>
<path d="M17.4064 24.5762L21.4079 28.3037L23.8388 23.1423" stroke="#1C1C1C" stroke-width="0.555781" stroke-linecap="round" stroke-linejoin="round"/>
<path d="M22.023 33.5076L17.6233 28.7501H17.1893L12.7895 33.5076L17.4082 38.5356L22.023 33.5076Z" fill="#1C1C1C"/>
<path d="M11.4877 22.757C5.76401 21.8307 0.569805 25.1895 0.569805 25.1895L-1.42105 52.4468H36.2261L34.2353 25.1895C32.6864 24.2798 28.3483 21.94 23.2039 22.7811L17.5837 35.0082C17.5684 35.0417 17.5429 35.0702 17.5104 35.0902C17.4778 35.1102 17.4395 35.1209 17.4005 35.1209C17.3615 35.1209 17.3233 35.1102 17.2908 35.0902C17.2582 35.0702 17.2327 35.0417 17.2174 35.0082L11.4877 22.757Z" fill="#FFB02E"/>
<path d="M11.5627 23.4887H27.4975V13.3124H7.29435L4.03131 23.4887H11.5627Z" fill="#1C1C1C"/>
<path d="M17.4022 24.6577C22.8998 24.6577 27.3564 20.5105 27.3564 15.3947C27.3564 10.2789 22.8998 6.13171 17.4022 6.13171C11.9047 6.13171 7.44797 10.2789 7.44797 15.3947C7.44797 20.5105 11.9047 24.6577 17.4022 24.6577Z" fill="#FF7629"/>
<path d="M27.4976 13.67L27.8958 23.4887H20.9379L26.542 13.67H27.4976Z" fill="#1C1C1C"/>
<path d="M26.5425 13.6663H27.5937C27.1612 11.458 25.9136 9.45955 24.0663 8.01608C22.219 6.57261 19.888 5.77471 17.4759 5.76021C15.0638 5.74571 12.7218 6.51551 10.8547 7.93666C8.98748 9.35781 7.71226 11.3411 7.24915 13.544L20.365 8.54201L26.5425 13.6663Z" fill="#1C1C1C"/>
<path d="M7.44971 17.2473C8.65918 17.2473 9.63965 16.3349 9.63965 15.2095C9.63965 14.084 8.65918 13.1716 7.44971 13.1716C6.24024 13.1716 5.25977 14.084 5.25977 15.2095C5.25977 16.3349 6.24024 17.2473 7.44971 17.2473Z" fill="#FF7629"/>
<path d="M27.3484 17.2473C28.5579 17.2473 29.5384 16.3349 29.5384 15.2095C29.5384 14.084 28.5579 13.1716 27.3484 13.1716C26.1389 13.1716 25.1585 14.084 25.1585 15.2095C25.1585 16.3349 26.1389 17.2473 27.3484 17.2473Z" fill="#FF7629"/>
<path d="M16.544 13.9812C16.4632 14.1214 16.343 14.2385 16.1963 14.3202C16.0496 14.4018 15.8818 14.4449 15.7108 14.4449C15.5399 14.4449 15.3722 14.4018 15.2255 14.3202C15.0788 14.2385 14.9585 14.1214 14.8777 13.9812" stroke="#1C1C1C" stroke-width="0.37052" stroke-linecap="round" stroke-linejoin="round"/>
<path d="M19.8868 13.9812C19.8059 14.1214 19.6857 14.2385 19.539 14.3202C19.3923 14.4018 19.2247 14.4449 19.0537 14.4449C18.8828 14.4449 18.715 14.4018 18.5682 14.3202C18.4215 14.2385 18.3013 14.1214 18.2204 13.9812" stroke="#1C1C1C" stroke-width="0.37052" stroke-linecap="round" stroke-linejoin="round"/>
<path d="M20.072 16.4989C19.8126 16.9488 19.427 17.3249 18.9562 17.587C18.4854 17.8492 17.947 17.9877 17.3983 17.9877C16.8496 17.9877 16.3111 17.8492 15.8403 17.587C15.3695 17.3249 14.9839 16.9488 14.7245 16.4989" stroke="#1C1C1C" stroke-width="0.37052" stroke-linecap="round" stroke-linejoin="round"/>
<path d="M43.9181 33.428C43.9188 30.5679 43.0037 27.7726 41.2898 25.3986C39.5758 23.0246 37.1406 21.1796 34.295 20.099C31.4493 19.0184 28.3223 18.7512 25.3128 19.3315C22.3033 19.9119 19.5478 21.3134 17.398 23.3572C15.9632 21.9847 14.2485 20.8924 12.3543 20.1443C10.4602 19.3961 8.42468 19.0073 6.36699 19.0004C4.3093 18.9935 2.27078 19.3687 0.370899 20.1041C-1.52899 20.8395 -3.25204 21.9203 -4.69742 23.2832C-6.1428 24.6461 -7.28144 26.2637 -8.04659 28.0412C-8.81174 29.8187 -9.18809 31.7203 -9.15352 33.6349C-9.11895 35.5494 -8.67416 37.4383 -7.84527 39.1909C-7.01638 40.9435 -5.82004 42.5245 -4.32628 43.8414L17.0854 63.7662C17.1682 63.8428 17.2802 63.8858 17.397 63.8858C17.5137 63.8858 17.6257 63.8428 17.7085 63.7662L39.1203 43.8414C40.6377 42.4996 41.8457 40.8844 42.6706 39.0941C43.4954 37.3038 43.9199 35.3759 43.9181 33.428Z" fill="#FA321E" stroke="#EE3E2D" stroke-width="0.18526" stroke-miterlimit="10"/>
</g>
</g>
</svg>
