<svg width="149" height="24" viewBox="0 0 149 24" fill="none" xmlns="http://www.w3.org/2000/svg">
<path d="M99.6113 23.2148H105.779L97.6087 0.67308H91.7209L83.5501 23.2148H89.7183L90.7997 20.0426H98.5299L99.6113 23.2148ZM92.7623 14.2269L94.6448 8.74772L96.5272 14.2269H92.7623Z" fill="#3E3330"/>
<path d="M9.93309 0C4.44586 0 0 5.33503 0 11.9197C0 18.5044 4.44586 23.8875 9.97314 23.8875C15.5004 23.8875 19.9463 18.5524 19.9463 11.9197C19.9062 5.33503 15.4604 0 9.93309 0ZM9.93309 16.4377C7.85034 16.4377 6.16813 14.419 6.16813 11.9197C6.16813 9.42041 7.85034 7.40175 9.93309 7.40175C12.0158 7.40175 13.698 9.42041 13.698 11.9197C13.698 14.419 12.0158 16.4377 9.93309 16.4377Z" fill="#3E3330"/>
<path d="M74.3781 23.2146C80.1456 23.2146 84.5515 18.1679 84.5515 11.9678C84.5515 5.7676 80.1056 0.720947 74.3781 0.720947H66.007V23.2627H74.3781V23.2146ZM74.2178 16.3415H71.8147V7.54594H74.2178C76.621 7.54594 78.3833 9.46847 78.3833 11.9197C78.3833 14.419 76.621 16.3415 74.2178 16.3415Z" fill="#3E3330"/>
<path d="M57.3155 0.67308V13.2657L50.5466 0.67308H44.0581V23.2148H49.9058V10.6222L56.7148 23.2148H63.2033V0.67308H57.3155Z" fill="#3E3330"/>
<path d="M19.9062 19.8022C19.9062 22.0612 18.3842 23.8876 16.5017 23.8876C14.6192 23.8876 13.0972 22.0612 13.0972 19.8022C13.0972 17.5432 14.6192 15.7168 16.5017 15.7168C18.3842 15.7168 19.9062 17.5432 19.9062 19.8022Z" fill="url(#paint0_linear_14_273)"/>
<path d="M36.5682 23.2148H42.7364L34.5656 0.67308H28.6778L20.467 23.2148H26.6351L27.7166 20.0426H35.4467L36.5682 23.2148ZM29.7192 14.2269L31.6017 8.74772L33.4842 14.2269H29.7192Z" fill="#3E3330"/>
<path d="M148.876 20.1385C148.876 21.8208 147.795 23.2146 146.433 23.2146H111.267C109.905 23.2146 108.823 21.8208 108.823 20.1385C108.823 18.4563 109.905 17.0625 111.267 17.0625H146.433C147.795 17.0625 148.876 18.4083 148.876 20.1385Z" fill="url(#paint1_linear_14_273)"/>
<path d="M115.352 5.62322C115.272 5.04646 114.911 4.08519 113.67 4.08519C112.829 4.08519 112.268 4.71001 112.268 5.3829C112.268 5.95966 112.588 6.39223 113.269 6.53642L114.631 6.8248C116.554 7.25737 117.555 8.74733 117.555 10.4776C117.555 12.4001 116.233 14.3227 113.79 14.3227C110.986 14.3227 109.785 12.1598 109.624 10.4296L111.707 9.80473C111.787 10.9102 112.428 11.9195 113.79 11.9195C114.671 11.9195 115.232 11.3908 115.232 10.6699C115.232 10.045 114.831 9.61248 114.15 9.46829L112.749 9.17991C111.026 8.7954 109.985 7.40156 109.985 5.62322C109.985 3.31618 111.667 1.73009 113.63 1.73009C116.153 1.73009 117.114 3.55649 117.315 4.95033L115.352 5.62322Z" fill="#3E3330"/>
<path d="M121.48 5.62323H122.882V7.88221H121.48V11.1024C121.48 11.8234 121.8 12.0157 122.281 12.0157C122.521 12.0157 122.722 11.9676 122.842 11.9195V14.0824C122.762 14.1304 122.401 14.3227 121.72 14.3227C120.238 14.3227 119.357 13.2653 119.357 11.5831V7.93027H118.116V5.67129H118.476C119.237 5.67129 119.598 5.09453 119.598 4.27746V3.172H121.56V5.62323H121.48Z" fill="#3E3330"/>
<path d="M128.69 13.1214C128.329 13.8423 127.488 14.1788 126.807 14.1788C125.085 14.1788 124.124 12.6888 124.124 10.8624V5.47932H126.286V10.3337C126.286 11.1508 126.647 11.8237 127.448 11.8237C128.169 11.8237 128.65 11.2469 128.65 10.3818V5.47932H130.812V12.4966C130.812 13.2656 130.852 13.8904 130.892 14.0346H128.81C128.73 13.8423 128.69 13.3617 128.69 13.1214Z" fill="#3E3330"/>
<path d="M139.384 12.5924C139.384 13.3614 139.424 13.9382 139.424 14.1304H137.341C137.341 14.0343 137.301 13.6498 137.301 13.3134C136.98 13.8901 136.259 14.3227 135.418 14.3227C133.416 14.3227 131.894 12.4482 131.894 9.85279C131.894 7.30544 133.336 5.43096 135.338 5.43096C136.54 5.43096 137.101 5.95966 137.261 6.29611V1.73009H139.424V12.5924H139.384ZM135.699 12.0156C136.54 12.0156 137.301 11.2947 137.301 9.90086C137.301 8.45896 136.54 7.78607 135.699 7.78607C134.858 7.78607 134.097 8.45896 134.097 9.90086C134.097 11.2947 134.858 12.0156 135.699 12.0156Z" fill="#3E3330"/>
<path d="M141.587 17.399L143.189 12.9772L140.225 5.6235H142.668L144.39 10.1895L145.952 5.6235H148.235L143.87 17.4471H141.587V17.399Z" fill="#3E3330"/>
<defs>
<linearGradient id="paint0_linear_14_273" x1="13.3931" y1="19.7897" x2="19.6485" y2="19.7897" gradientUnits="userSpaceOnUse">
<stop stop-color="#FF6800"/>
<stop offset="0.267" stop-color="#FF5F00"/>
<stop offset="0.703" stop-color="#FF4600"/>
<stop offset="1" stop-color="#FF3200"/>
</linearGradient>
<linearGradient id="paint1_linear_14_273" x1="107.894" y1="20.1236" x2="148.983" y2="20.1236" gradientUnits="userSpaceOnUse">
<stop stop-color="#FF6800"/>
<stop offset="0.2507" stop-color="#FF6100"/>
<stop offset="0.6126" stop-color="#FF4E00"/>
<stop offset="1" stop-color="#FF3200"/>
</linearGradient>
</defs>
</svg>
